<?xml version="1.0" encoding="utf-8"?><!DOCTYPE svg PUBLIC "-//W3C//DTD SVG 1.1//EN" "http://www.w3.org/Graphics/SVG/1.1/DTD/svg11.dtd"><svg xmlns="http://www.w3.org/2000/svg" width="283.465" height="841.89"><path fill="#F06312" fill-rule="evenodd" d="M56.267 225.4c2.69 2.34 5.24 4.42 10.32 4.42 1.99 0 2.21-1.63 2.95-2.94l-4.46-1.4.03-3.03c.88-3.28.35-4.42 4.43-4.42 4.52 0 6.37 3.64 7.37 7.37l1.47 13.27 2.95 2.46 4.43.49 4.42-16.22c0-10.81-6.44-19.17-16.22-19.17h-2.95c-7.09 0-16.22 4.05-16.22 10.32v1.48c0 3.98.71 4.06 1.48 7.37zm35.39-138.61v4.42c0 12.2 8.62 28.83 16.22 33.92-.6-7.15-2.95-9.25-2.95-17.7v-7.37c0-19.47 23.59-42.98 23.59-69.31 0-7.02-1.18-12.48-4.42-16.22-.48 21.44-7.23 23.36-16.51 35.11-4.72 5.97-15.93 27.99-15.93 37.15zm88.47 76.68c-4.9-18.351-45.709-47.08-45.709-81.11 0-8.18 5.479-17.09 8.85-22.11-10.45 2.78-26.55 25.74-26.55 39.81v4.42c0 32.66 18.48 46.34 29.499 69.31v5.9l-12.699-8.19-.57 45.05-14.75 26.55 7.37 4.42c3.59-4.9 12.569-19.82 16.22-17.7 5.169 8.15-2.699 27.06 8.849 28.02 1.811-6.77 4.42-3.72 4.42-8.85l.32-3.91 6.811-3.96 4.67 13.77h2.949v-4.42h2.951v2.95l5.609-20.9 3.24 16.47 22.119 1.48 1.461.18 5.91-.18v17.69l3.391-25.02c.439-9.34-4.191-20-4.871-28.06-6.289-13.12-19.15-44.69-29.49-51.61zm38.34 50.13l8.801-3.2 1.109 1.86 1.891-1.61-9.301-16.85-2.82 6.45-2.629.08-6.98-30.75c-.82 2.79-1.869 6.58-1.869 11.58-.001 10.24 7.348 26.04 11.798 32.44z" clip-rule="evenodd"/><path fill="#E19C1B" d="M85.758 241.62l-4.431-.49-2.95-2.46-7.03 20.76z"/><path fill="#F4C202" fill-rule="evenodd" d="M125.568 247.52c-6.48 9.67-31.02 35.77-44.24 36.86l-10.18 3.54-.14-3.54c-8.67 2.02-12.28 14.42-17.69 20.65l-11.8 2.95c-8.32 17.33 10.23 39.72 16.22 48.66l1.23 1.72 1.72 1.229 6.08 1.461-1.66-8.83 1.17-22.26 1.78.14c.31 13.62 8.91 25.079 17.76 31.3l7.31-1.811v-5.899l1.63.989 14.59-21.629 12.07-10.291-1.75 14.711-.07 2.82-2.88 1.6v4.43h5.9c2.82-5.33 8.67-8.73 13.189-13.35 4.301-4.4 7.871-10.461 11.691-14.86 5.949-6.84 16.969-25.67 17.889-36.67l-2.879-1.6-1.551-20.52v-8.85c-7.49.82-13.42 23.48-26.54 26.54 4.431-19 7.37-20.79 7.37-47.19-3.65-2.12-12.63 12.8-16.219 17.7zm103.219 78.149c-2.949 4.42-8.969 11.811-11.35 16.67-4.961 10.11-11.75 12.82-12.24 17.25h17.699c15.262-10.229 8.9-18.1 13.271-36.869l-7.38 2.949zm-53.08-25.069l-12.779 33.55c17.82 0 28.959-22.72 36.369-24.7 0 19.7-16.809 39.91-22.119 54.559l7.379-1.469c6.33-5.5 18.031-6.48 20.641-17.701 10.59-.879 13.52-18.56 19.17-25.069v-1.47l3.01-17.69-4.52-1.4-2.279 4.74-.631-6.29h-5.9l-1.609 10.29-7.881-6.63-3.25 2.8-2.189-6.41-4.24-.05-5.289 5.32-.611-5.32h-4.42v-2.95l-8.852 5.89z" clip-rule="evenodd"/><path fill="#E67745" d="M172.758 344.839l-11.801 5.9c-2.84 2.471-9.65 7.381-14.74 7.381h-4.429l1.48-5.9v-4.43l4.42-4.42-2.869-1.701c-1.932 7.16-26.121 19.4-35.471 19.4-3.12 0-1.94-.529-5.9-1.48l3.11-14.699-10.48 17.65 1.47 2.949 11.8 2.95 30.15-11.49-3.88 7.171 1.75 4.319 16.22-4.431 16.01-7.33 1.689 4.391 19.75-30.58-18.279 14.35z"/><path fill="#FCEAB5" fill-rule="evenodd" d="M147.687 343.371l-4.42 4.42v4.43l-1.48 5.9h4.429c5.09 0 11.9-4.91 14.74-7.381l11.801-5.9-5.27-4.319-1.512 1.08.881-2.66-10.32-1.45-7.369-.02-1.48 5.9zm54.561 19.17l-1.602 2.869-23.469.08-5.891-4.43-1.689-4.381-16.01 7.33 11.799 1.48v7.37h-39.819l.01-5.931 11.79 1.511-1.75-4.319 3.88-7.171-30.15 11.49-11.8-2.95h-32.44l2.97 5.881-1.49 2.969h144.51l10.32-13.279-19.169 1.481z" clip-rule="evenodd"/><path fill="#FDFDFF" d="M137.367 368.44l-11.79-1.511-.009 5.931h39.818v-7.37l-11.798-1.481z"/><path fill="#A45510" fill-rule="evenodd" d="M42.997 400.88l1.47 1.47h5.9c-1.54-2.9-2.95-4.351-2.95-8.851v-10.32c0-3.979-.71-4.059-1.44-7.159l4.39-1.69-17.7 1.48-1.59 25.07h11.92z" clip-rule="evenodd"/><path fill="#F06312" d="M73.957 402.35h16.22c15.23-10.58 4.97-18.601 11.76-24.79l-14.71-1.75-1.6 2.869 3.29 4.33-1.55-.209-4.63 16.16 1.55.489-10.33 2.901z"/><path fill="#C37B15" d="M87.227 375.81l14.71 1.75c-6.79 6.189 3.47 14.21-11.76 24.79h23.6v-4.421l-5.19-5c.71-1.92.85-1.01.84-1.01 0 0-.08-.47-.08-2.84v-8.85l4.43-4.42v-1.471h-41.29l14.74 1.472z"/><path fill="#F9D67A" fill-rule="evenodd" d="M172.758 253.42l-7.371 28.02c-.92 11-11.939 29.83-17.889 36.67-3.82 4.399-7.39 10.46-11.691 14.851-4.52 4.629-10.369 8.029-13.189 13.359-3.23 2.811-3.29 3.96-9.24 4.311l3.34-8.74c.78-3.301 1.48-3.391 1.48-7.37l-.33-7.7-5.57 6.23h-2.95l-14.59 21.629-1.63-.989v5.899l-7.31 1.811c-8.85-6.221-17.45-17.68-17.76-31.3l-1.78-.13-1.17 22.25 1.66 8.83-6.08-1.461 4.42 5.9h32.44l-1.47-2.949 10.48-17.65-3.11 14.699c3.96.951 2.78 1.471 5.9 1.471 9.35 0 33.539-12.23 35.471-19.391l2.869 1.701 1.48-5.9 7.369.02 10.32 1.46-.881 2.65 1.512-1.08 5.27 4.319 18.279-14.35-19.75 30.57 5.891 4.43 23.469-.08 1.602-2.869 19.17-1.48 1.479-1.471h-17.699c.49-4.43 7.279-7.14 12.24-17.25 2.381-4.859 8.4-12.25 11.35-16.67h-4.42v-5.89c-5.65 6.5-8.58 24.181-19.17 25.06-2.609 11.221-14.311 12.201-20.641 17.701l-7.379 1.469c5.311-14.649 22.119-34.859 22.119-54.559-7.41 1.979-18.549 24.7-36.369 24.7l12.779-33.54 5.9-51.62-3.24-16.47-5.61 20.899zM51.838 394.98h2.95v-20.64h-2.95v20.64zm33.92 73.73c5.36-1.781-2.01-7.48-5.53-12.17-1.72-2.291-7.51-12.091-8.78-14.811-4.83-10.33-6.49-25.92-9.29-37.9h-2.94c0 33.542 13.5 45.411 26.54 64.881z" clip-rule="evenodd"/><path fill="#C37B15" d="M110.827 486.4l4.42 4.43 28.02 2.95h7.369c9.91 0 17.791-4.2 28.021-4.43 3.148-8.7 61.93-20.271 61.93-85.521h-7.371c0 61.271-67.779 78.09-70.779 85.521h-7.381c4.99-4.33 15.65-7.65 22.4-12.99 7.291-5.771 10.99-9.819 17.02-16.899 11.23-13.17 12.191-31.451 12.191-55.631h-98.791c-1.64 7.03-7.38 12.67-7.38 19.17v14.74c0 15.4 6.32 12.34 7.38 25.07 6.45.54 10.28 8.15 13.84 12.699 3.721 4.771 12.041 7.841 12.59 14.5l-23.479-3.609z"/><path fill="#E19C1B" fill-rule="evenodd" d="M118.198 334.52c0 3.979-.7 4.069-1.48 7.37l2.88-1.6.07-2.82 1.75-14.711-12.07 10.291h2.95l5.57-6.23.33 7.7zm-1.48 11.8v-4.43l-3.34 8.74c5.95-.351 6.01-1.5 9.24-4.311h-5.9zM218.467 213.6l2.951 10.33v19.17l12.369-9.7-.57-5.05-2.949-17.7-1.891 1.61-1.109-1.86-8.801 3.2zm-57.51 45.72l1.551 20.52 2.879 1.6 7.371-28.02v-2.95h-2.951v4.42h-2.949l-4.67-13.77-6.811 3.96-.32 3.91c0 5.13-2.609 2.08-4.42 8.85-11.548-.96-3.68-19.87-8.849-28.02 0 26.4-2.939 28.19-7.37 47.19 13.12-3.06 19.049-25.72 26.54-26.54v8.85zm-79.63 25.06c13.22-1.09 37.76-27.19 44.24-36.86l-7.37-4.42c-3.4 5.07-15.06 18.58-22.12 19.17 6.12-12.76 4.42-9.11 4.42-25.07-7.67 8.82-9.07 16.49-20.37 25.34-11.3 8.86-14.22 9.65-22.39 21.84-13.13 8.8-9.31 10.55-16.22 23.6l11.8-2.95c5.41-6.23 9.02-18.63 17.69-20.65l.14 3.54 10.18-3.54zm94.38 16.22l8.85-5.89v2.95h4.42l.611 5.32 5.289-5.32 4.24.05 2.189 6.41 3.25-2.8 7.881 6.63 1.609-10.29h5.9l.631 6.29 2.279-4.74 4.52 1.4-3.01 17.69 2.871-1.601c.279-8.95 5.979-17.36 5.979-23.47v-35.39c0-2.85-.469-2.62-1.479-4.42-6.58 4.82-8.25 21.08-20.641 22.12v-25.07l-5.91.18-1.461-.18-22.119-1.48-5.899 51.611zm-120.92 91.43v2.95h-2.95l1.48 7.37h20.64l10.33-2.9-1.55-.489 4.63-16.16 1.55.199-3.29-4.32 1.6-2.869-14.74-1.471H54.787v17.69zm30.971 76.68l25.07 17.699 23.479 3.6c-.549-6.659-8.869-9.729-12.59-14.489-3.56-4.56-7.39-12.17-13.84-12.71-1.06-12.73-7.38-9.67-7.38-25.07V423c0-6.49 5.74-12.14 7.38-19.17h-45.72c2.8 11.98 4.46 27.57 9.29 37.9 1.27 2.72 7.06 12.52 8.78 14.811 3.52 4.689 10.89 10.388 5.531 12.169zm45.709 358.331h5.9l-7.37-318.521-10.33-7.37 11.8 325.891z" clip-rule="evenodd"/><path fill="#A45510" fill-rule="evenodd" d="M118.198 402.35l31.189-.66-3.17-.81v-4.42l3.891-.461-3.75-7.709-2.66.31 5.471-11.31h-11.8v-1.48h29.49v4.42l5.91.699 38.33-.699v17.699h-2.951v2.951c3.891 1.92-1.209 1.47 4.422 1.47h19.17v-26.54l-20.641-1.471H113.779v1.471l-4.43 4.42v8.85c0 2.03.06 2.67.08 2.811-.03-.15-.22-.65-.84 1.039l5.19 5v4.421h4.419zm115.019 1.48h-26.549c0 24.18-.961 42.461-12.191 55.631-6.029 7.08-9.729 11.129-17.02 16.899-6.75 5.34-17.41 8.66-22.4 13h7.381c2.999-7.441 70.779-24.26 70.779-85.53zm-103.22 104.69l7.37 318.51 23.589-1.47 13.27-322.939c-12.729 14.659-7.238 133.029-10.75 161.569-2.35 19.101.811 59.64-3.109 81.149-2.279 12.58-.119 29.961-2.039 42.19-1.98 12.57 4.76 37.12-6.682 38.021l7.691-308.18-.451 1.829-28.889-10.679z" clip-rule="evenodd"/><path fill="#C37B15" fill-rule="evenodd" d="M50.367 402.35h2.95l-1.48-7.37v-20.641h-1.47l-4.39 1.681c.73 3.101 1.44 3.18 1.44 7.159v10.33c0 4.491 1.41 5.951 2.95 8.841zm33.911 72.26l20.59 11.91 13.41 334.61 5.49 6.229 7.699-.319-11.8-325.891-7.29-8.721 2.87-1.6-4.42-4.42-25.07-17.699c-13.04-19.471-26.54-31.34-26.54-64.881h-4.43c0 12.051 6.49 28.78 9.72 40.41 1.81 6.51 4.93 12.41 9.43 15.65 9.68 6.962 4.69 6.281 10.341 14.722z" clip-rule="evenodd"/><path fill="#8C3B0B" fill-rule="evenodd" d="M118.198 402.35h-73.73c0 30.29 19.89 66.94 39.81 72.26-5.65-8.44-.66-7.76-10.34-14.72-4.5-3.24-7.62-9.141-9.43-15.65-3.23-11.63-9.72-28.359-9.72-40.41H240.589v-2.949h11.799v-25.07H231.74v26.54h-19.17c-2.432 0-2.861.09-2.881.03-.029-.08.67-.4-1.541-1.5v-2.951h2.951v-17.7l-38.33.699-5.91-.699v-4.42h-29.49v1.48h11.8l-5.471 11.31 2.66-.31 3.75 7.709-3.891.461v4.42l3.17.81-31.189.66zm-2.951 88.48l-2.87 1.6 7.29 8.721 10.33 7.37 28.889 10.68.451-1.829-7.691 308.18c11.441-.9 4.701-25.45 6.682-38.01 1.92-12.24-.24-29.621 2.039-42.19 3.92-21.521.76-62.06 3.109-81.16 3.512-28.54-1.979-146.91 10.75-161.569l-13.27 322.939c5.18-5.96 17.701-302.23 17.701-336.21-10.23.229-18.111 4.43-28.021 4.43h-7.369l-28.02-2.952z" clip-rule="evenodd"/></svg>